<svg xmlns="http://www.w3.org/2000/svg" width="15.497" height="18" viewBox="0 0 15.497 18"><defs><style>.a{fill:#e69109;}</style></defs><g transform="translate(-1285 -1815.178)"><path class="a" d="M18.455,24.341a3.428,3.428,0,1,0-3.428-3.428,3.432,3.432,0,0,0,3.428,3.428" transform="translate(1273.203 1800.123)"/><path class="a" d="M6.658,52.9A6.666,6.666,0,0,0,0,59.559a1.3,1.3,0,0,0,1.3,1.3H12.017a1.3,1.3,0,0,0,1.3-1.3A6.666,6.666,0,0,0,6.658,52.9" transform="translate(1285 1772.32)"/><path class="a" d="M54.9,8.359l1.08-1.08a.645.645,0,0,0-.912-.912l-1.08,1.08-1.08-1.08a.645.645,0,0,0-.912.912l1.08,1.08-1.08,1.08a.645.645,0,1,0,.912.912l1.08-1.08,1.08,1.08a.645.645,0,0,0,.912-.912Z" transform="translate(1244.33 1809)"/></g></svg>